<svg xmlns="http://www.w3.org/2000/svg" width="243.111" height="116.943" viewBox="0 0 243.111 116.943">
    <defs>
        <style>
            .cls-1{fill:#fff}
        </style>
    </defs>
    <g id="Group_344" transform="translate(-923.246 -701.744)">
        <path id="Path_136" d="M1163.472 954.949v9.457c-.833.042-1.607.115-2.381.115q-18.388.011-36.776 0c-12.018-.017-20.846-8.8-20.919-20.829-.042-6.941.023-13.883-.032-20.824a8.116 8.116 0 0 0-13.085-6.432 7.969 7.969 0 0 0-3.149 6.759c.025 6.572.009 13.145 0 19.717-.009 12.915-8.626 21.621-21.49 21.624-47.262.01-92.817 0-140.078-.015-.725 0-1.45-.06-2.32-.1v-9.476H1065.181c8.236 0 12.374-4.15 12.378-12.406 0-6.425-.021-12.849.006-19.274.043-10.21 7.7-18.052 17.615-18.084 10.018-.033 17.713 7.837 17.74 18.167.017 6.646-.01 13.292.008 19.938.019 7.182 4.449 11.644 11.585 11.654q18.166.024 36.332 0z" class="cls-1" transform="translate(0 -174.514)"/>
        <path id="Path_137" d="M2351.46 736.27v-34.526h9.4V772.7h-9.251l-.24-3.117c-3.07 1.383-5.988 3.345-9.175 4.006-7.715 1.6-14.135-1.05-18.776-7.48-6.325-8.763-5.381-22.284 1.97-29.893a17.531 17.531 0 0 1 24.229-1.41c.483.4.983.782 1.843 1.464zm.59 16.213c.026-7.564-4.494-12.983-11.061-13.261-6.09-.258-11.019 4.21-11.877 10.767-.969 7.406 2.733 13.969 8.62 15.28.216.048.436.073.654.108 7.784 1.223 13.635-4.302 13.664-12.894z" class="cls-1" transform="translate(-1197.475)"/>
        <path id="Path_138" d="M1670.843 892.861V884.2h9.338v44.99h-9.267l-.245-3.677a7.75 7.75 0 0 0-1.027.623c-9.742 8.556-25.888 4.609-29.946-10.016-2.311-8.33-1.389-16.315 4.684-23.015a17.534 17.534 0 0 1 24.685-1.7zm-22.475 16.321c.039.5.058 1.536.21 2.553 1.056 7.032 6.515 11.191 13.288 10.133a10.38 10.38 0 0 0 7.563-5.208c3.139-5.221 2.492-13.1-1.411-17.4a11.21 11.21 0 0 0-12.166-2.827c-4.561 1.734-7.452 6.452-7.484 12.749z" class="cls-1" transform="translate(-613.58 -156.512)"/>
        <path id="Path_139" d="M1276.9 823.139h7.328v8.817h-7.167v32.076h-9.357v-55.78h9.2z" class="cls-1" transform="translate(-295.482 -91.364)"/>
        <path id="Path_140" d="M1225.617 823.139h-7.328v8.817h7.167v32.076h9.357v-55.78h-9.2z" class="cls-1" transform="translate(-253.091 -91.364)"/>
        <path id="Path_141" d="M1440.783 947.124h-9.312v-40.851h9.181l.251 3.295c5.273-5.535 10.961-5.76 17.208-2.056l-4.25 8.465c-.547-.248-.944-.412-1.328-.6-5.367-2.677-9.986-.539-11.211 5.325a30.512 30.512 0 0 0-.517 5.934c-.059 6.764-.022 13.539-.022 20.488z" class="cls-1" transform="translate(-435.96 -174.374)"/>
        <g id="Group_341" transform="translate(923.311 704.809)">
            <path id="Path_142" d="M928.681 776.568a20.879 20.879 0 0 0 2.688 6.919 10.3 10.3 0 0 0 4.381 3.759 16.837 16.837 0 0 0 6.92 1.219q5.824 0 8.935-3.037t3.111-8.861a13.713 13.713 0 0 0-1.294-6.272 14.39 14.39 0 0 0-4.231-4.779 58 58 0 0 0-8.961-5.227 49.526 49.526 0 0 1-9.209-5.65 19.148 19.148 0 0 1-5.053-6 15.188 15.188 0 0 1-1.668-7.069 17.649 17.649 0 0 1 2.613-9.682 16.9 16.9 0 0 1 7.666-6.347 28.3 28.3 0 0 1 11.574-2.24 58.569 58.569 0 0 1 16.428 2.19v13.441h-4.928a20.939 20.939 0 0 0-2.887-6.82 9.547 9.547 0 0 0-4.082-3.41 16.042 16.042 0 0 0-6.073-.971 13.569 13.569 0 0 0-5.8 1.195 9.287 9.287 0 0 0-4.057 3.609 10.716 10.716 0 0 0-1.494 5.75 12.818 12.818 0 0 0 1.27 5.974 14.056 14.056 0 0 0 3.957 4.53 47.567 47.567 0 0 0 7.965 4.679 60.4 60.4 0 0 1 9.882 5.924 20.883 20.883 0 0 1 5.476 6.247 16.484 16.484 0 0 1 1.966 8.189 21.265 21.265 0 0 1-1.643 8.836 15.339 15.339 0 0 1-4.555 5.874 18.565 18.565 0 0 1-6.969 3.286 36.419 36.419 0 0 1-8.886 1.021 73.083 73.083 0 0 1-18.021-2.639v-13.638z" class="cls-1" transform="translate(-923.703 -723.302)"/>
        </g>
        <g id="Group_342" transform="translate(1099.583 793.196)">
            <path id="Path_143" d="M2174.924 1348.382c-.638 3.656-1.254 7.153-1.857 10.652-.249 1.443-.5 2.885-.7 4.336-.187 1.412.209 2.176 1.138 2.4a2.36 2.36 0 0 0 3.021-1.552c.413-1.492.658-3.033.93-4.561.63-3.53 1.231-7.065 1.848-10.6a6.491 6.491 0 0 1 .181-.638h8.783c-.256 1.491-.5 2.926-.75 4.359-.647 3.648-1.233 7.308-1.967 10.939-1.184 5.855-5.282 9.287-11.25 9.574a11.949 11.949 0 0 1-6.285-1.071 8.622 8.622 0 0 1-4.49-9.273c.782-4.626 1.607-9.244 2.444-13.86.047-.263.368-.677.567-.68 2.751-.04 5.498-.025 8.387-.025z" class="cls-1" transform="translate(-2163.395 -1347.886)"/>
            <path id="Path_144" d="M2315.667 1365.722l4.168-5.406c.643.562 1.245 1.119 1.879 1.635a6.781 6.781 0 0 0 5.138 1.927c.7-.078 1.345-.2 1.485-1.014s-.4-1.2-1.053-1.457c-.723-.282-1.45-.561-2.191-.791-4.767-1.48-6.861-5.72-4.455-10.882 1.349-2.893 3.761-4.143 6.779-4.64 4.175-.688 7.769.573 11.146 3.016l-3.217 5.589c-.713-.529-1.36-1.041-2.04-1.5a4.519 4.519 0 0 0-3.1-.948 1.539 1.539 0 0 0-1.449 1.018 1.33 1.33 0 0 0 .645 1.541 10.257 10.257 0 0 0 1.447.886c.875.454 1.781.847 2.653 1.305 3.05 1.6 4.164 4.031 3.419 7.383-.822 3.7-3.305 5.679-6.829 6.556-5.3 1.319-9.841-.261-13.9-3.664a7.069 7.069 0 0 1-.525-.554z" class="cls-1" transform="translate(-2294.015 -1344.909)"/>
            <path id="Path_145" d="M2477.029 1371.724c-1.1-7.509-2.23-15.014-3.289-22.53-.137-.972-.493-1.176-1.406-1.15-2.451.069-4.9.05-7.356.007a1.363 1.363 0 0 0-1.443.855q-5.87 11.391-11.8 22.75c-.146.281-.27.572-.459.975 3.081 0 6.031.009 8.982-.02.182 0 .439-.264.529-.465.378-.844.684-1.721 1.066-2.563.1-.226.376-.53.576-.534 1.994-.04 3.989-.024 6.038-.024l.35 3.556h8.3c-.034-.324-.049-.592-.088-.857zm-6.512-12.928q-.721.708-1.447 1.41a.1.1 0 0 0-.031.1q.208 1.2.413 2.4c0 .026.008.052.013.088l-.064-.033-2.17-1.141a.1.1 0 0 0-.111 0q-1.087.574-2.175 1.144l-.063.032.065-.384.363-2.11a.1.1 0 0 0-.033-.1q-.873-.849-1.744-1.7l-.061-.06a.167.167 0 0 1 .034-.014l2.294-.333a.732.732 0 0 1 .121-.017c.086 0 .124-.046.159-.119q.526-1.076 1.059-2.15l.035-.066.035.062 1.084 2.2a.109.109 0 0 0 .1.068l2.24.325.23.033c-.117.123-.227.249-.345.369z" class="cls-1" transform="translate(-2410.342 -1347.597)"/>
        </g>
    </g>
</svg>
